<?xml version="1.0" encoding="UTF-8" standalone="no"?>
<!-- Created with Inkscape (http://www.inkscape.org/) -->

<svg
   width="50mm"
   height="34.397999mm"
   viewBox="0 0 50 34.397999"
   version="1.1"
   id="svg5"
   xml:space="preserve"
   inkscape:version="1.2.2 (732a01da63, 2022-12-09)"
   sodipodi:docname="herColoro.svg"
   xmlns:inkscape="http://www.inkscape.org/namespaces/inkscape"
   xmlns:sodipodi="http://sodipodi.sourceforge.net/DTD/sodipodi-0.dtd"
   xmlns:xlink="http://www.w3.org/1999/xlink"
   xmlns="http://www.w3.org/2000/svg"
   xmlns:svg="http://www.w3.org/2000/svg"><sodipodi:namedview
     id="namedview7"
     pagecolor="#ffffff"
     bordercolor="#000000"
     borderopacity="0.25"
     inkscape:showpageshadow="2"
     inkscape:pageopacity="0.0"
     inkscape:pagecheckerboard="0"
     inkscape:deskcolor="#d1d1d1"
     inkscape:document-units="mm"
     showgrid="false"
     inkscape:zoom="2.0888418"
     inkscape:cx="23.697342"
     inkscape:cy="8.1384812"
     inkscape:window-width="1920"
     inkscape:window-height="1009"
     inkscape:window-x="-8"
     inkscape:window-y="-8"
     inkscape:window-maximized="1"
     inkscape:current-layer="layer1" /><defs
     id="defs2"><linearGradient
       inkscape:collect="always"
       id="linearGradient1172"><stop
         style="stop-color:#4a2604;stop-opacity:1;"
         offset="0"
         id="stop1168" /><stop
         style="stop-color:#482503;stop-opacity:1;"
         offset="0.03790613"
         id="stop1176" /><stop
         style="stop-color:#ffb165;stop-opacity:1;"
         offset="0.06137184"
         id="stop1178" /><stop
         style="stop-color:#ebab5d;stop-opacity:1;"
         offset="0.11552346"
         id="stop1180" /><stop
         style="stop-color:#55b7d9;stop-opacity:1;"
         offset="0.18231046"
         id="stop1182" /><stop
         style="stop-color:#55b7d9;stop-opacity:1;"
         offset="0.29963902"
         id="stop1184" /><stop
         style="stop-color:#006c00;stop-opacity:1;"
         offset="0.3465704"
         id="stop1186" /><stop
         style="stop-color:#006c00;stop-opacity:1;"
         offset="1"
         id="stop1170" /></linearGradient><radialGradient
       inkscape:collect="always"
       xlink:href="#linearGradient1172"
       id="radialGradient1174"
       cx="25"
       cy="1.5492878"
       fx="25"
       fy="1.5492878"
       r="37.481207"
       gradientUnits="userSpaceOnUse"
       gradientTransform="matrix(0.92592173,0.37771544,-0.38863434,0.95268804,3.0810234,-9.3695862)" /><clipPath
       clipPathUnits="userSpaceOnUse"
       id="clipPath1188"><path
         id="path1190"
         style="fill:none;fill-opacity:1;stroke:#00ff00;stroke-width:0.264583"
         d="M 1.1810296e-5,11.796781 C 7.4989698,9.496811 11.567635,12.165451 13.539256,15.106611 l 1.500076,-2.56123 c -0.324104,-3.1572899 1.554162,-3.3679001 3.09686,-3.36812 -0.06485,-0.99641 -0.126044,-1.9933401 -0.354733,-2.96634 0.841344,0.1364099 1.72556,0.3985501 2.075472,1.5931099 0.527833,-0.0472 1.067124,-0.1479999 1.525878,0.1271101 0.428678,-0.6502 0.556151,-1.41624 1.553656,-1.84766 l 0.619628,0.50259 C 23.102831,5.4291209 22.82617,3.7311211 24.300234,2.236421 l 1.014427,-1.88183002 c 0.561257,-0.49410999 1.100781,-0.48836999 1.613985,0.12279001 0.206968,0.25962999 0.301831,2.13864001 -0.04981,1.73492001 -0.04172,-0.0614 -0.06819,-0.16628 -0.413292,0.63576 -0.0082,1.15506 0.585584,2.33461 -0.515146,3.5352 3.844155,1.2431401 2.59122,4.77511 2.680091,7.70698 2.267913,1.10693 3.711189,2.67783 5.2167,4.23896 0.988647,1.05188 1.634003,0.66848 2.166255,-0.16613 0.928425,-1.78647 1.297127,-1.03958 1.627753,-1.44718 0.505828,-0.62359 1.01763,-1.93934 4.402156,-6.57216 0.363765,-0.0394 1.001811,-0.0428 1.077722,0.35016 2.336385,-0.4158 5.214025,0.39491 6.082184,1.4907 0.99868,0.33506 0.92433,0.79787 0.504431,1.30181 l -9.005727,4.96705 -2.766284,0.21274 -2.962818,4.59306 -1.203238,0.21382 0.783199,2.56974 0.102994,-0.74184 1.320583,-0.21807 1.886122,3.900149 0.161145,4.456321 -0.293161,0.0538 c -0.188804,1.055849 -0.601091,0.572148 -0.999578,0.183539 -0.221197,0.60939 -0.42623,1.26869 -1.185322,0.217651 -0.278062,0.550709 -0.546778,1.16218 -1.058463,0.19435 -0.249447,0.01479 -0.436584,-0.0452 -0.565865,-0.174562 -0.230208,-0.448728 -0.118459,-0.89744 -0.13118,-1.346168 -1.191329,0.234548 -1.885921,-0.67723 -2.457826,-1.87212 -2.827925,2.77971 -6.28859,4.516358 -10.568026,1.272058 -0.134241,0.477822 -0.35821,0.94442 -0.874414,1.374492 -0.291159,0.16578 -0.915193,0.653989 -0.803988,-0.603541 -0.921208,0.3673 -1.174037,-0.295219 -1.235374,-0.92738 -0.83942,0.228679 -0.934619,-0.2545 -1.009082,-0.75751 l 0.960341,-2.368759 C 16.794803,26.972111 17.073291,25.23739 17.434445,23.4884 L 16.035738,22.50767 C 13.379964,21.07907 11.958961,22.09152 10.223924,19.7199 8.8216307,17.59359 6.3938519,16.77897 3.5358518,16.51463 1.8964288,14.80376 0.9835758,13.31086 -6.1897041e-6,11.79675 Z"
         sodipodi:nodetypes="ccccccccccccccccccsccccccccccccccccccccccccccccccc" /></clipPath></defs><g
     inkscape:label="Capa 1"
     inkscape:groupmode="layer"
     id="layer1"><circle
       style="fill:url(#radialGradient1174);fill-opacity:1;stroke:#ffff00;stroke-width:0.264583"
       id="path1166"
       cx="25.626961"
       cy="1.5492878"
       r="37.348915"
       clip-path="url(#clipPath1188)" /></g></svg>
