<?xml version="1.0" encoding="UTF-8" standalone="no"?>
<!-- Created with Inkscape (http://www.inkscape.org/) -->

<svg
   width="50mm"
   height="34.397999mm"
   viewBox="0 0 50 34.397999"
   version="1.1"
   id="svg5"
   xml:space="preserve"
   inkscape:version="1.2.2 (732a01da63, 2022-12-09)"
   sodipodi:docname="hero.svg"
   xmlns:inkscape="http://www.inkscape.org/namespaces/inkscape"
   xmlns:sodipodi="http://sodipodi.sourceforge.net/DTD/sodipodi-0.dtd"
   xmlns="http://www.w3.org/2000/svg"
   xmlns:svg="http://www.w3.org/2000/svg"><sodipodi:namedview
     id="namedview7"
     pagecolor="#ffffff"
     bordercolor="#000000"
     borderopacity="0.25"
     inkscape:showpageshadow="2"
     inkscape:pageopacity="0.0"
     inkscape:pagecheckerboard="0"
     inkscape:deskcolor="#d1d1d1"
     inkscape:document-units="mm"
     showgrid="false"
     inkscape:zoom="1.4770342"
     inkscape:cx="72.780981"
     inkscape:cy="181.44468"
     inkscape:window-width="1920"
     inkscape:window-height="1009"
     inkscape:window-x="-8"
     inkscape:window-y="-8"
     inkscape:window-maximized="1"
     inkscape:current-layer="layer1" /><defs
     id="defs2" /><g
     inkscape:label="Capa 1"
     inkscape:groupmode="layer"
     id="layer1"><path
       id="path505"
       style="fill:#000000;stroke:none;stroke-width:0.264583"
       d="M 1.1810296e-5,11.796781 C 7.4989698,9.496811 11.567635,12.165451 13.539256,15.106611 l 1.500076,-2.56123 c -0.324104,-3.15729 1.554162,-3.3679 3.09686,-3.36812 -0.06485,-0.99641 -0.126044,-1.99334 -0.354733,-2.96634 0.841344,0.13641 1.72556,0.39855 2.075472,1.59311 0.527833,-0.0472 1.067124,-0.148 1.525878,0.12711 0.428678,-0.6502 0.556151,-1.41624 1.553656,-1.84766 l 0.619628,0.50259 c -0.453262,-1.15695 -0.729923,-2.85495 0.744141,-4.34965 l 1.014427,-1.88183001 c 0.561257,-0.49411 1.100781,-0.48837 1.613986,0.12279 0.206967,0.25963 0.301831,2.13864001 -0.04981,1.73492001 -0.04172,-0.0614 -0.06819,-0.16628 -0.413292,0.63576 -0.0082,1.15506 0.585584,2.33461 -0.515145,3.5352 3.844154,1.24314 2.59122,4.77511 2.68009,7.70698 2.267913,1.10693 3.711189,2.67783 5.216701,4.23896 0.988648,1.05188 1.634004,0.66848 2.166254,-0.16613 0.928426,-1.78647 1.297127,-1.03958 1.627754,-1.44718 0.505827,-0.62359 1.017631,-1.93934 4.402155,-6.57216 0.363766,-0.0394 1.001813,-0.0428 1.077722,0.35016 2.336385,-0.4158 5.214025,0.39491 6.082185,1.4907 0.99868,0.33506 0.92433,0.79787 0.50443,1.30181 l -9.005725,4.96705 -2.766285,0.21274 -2.962818,4.59306 -1.203237,0.21382 0.783199,2.56974 0.102992,-0.74184 1.320584,-0.21807 1.886121,3.90015 0.161147,4.45632 -0.293162,0.0538 c -0.188805,1.05585 -0.60109,0.57215 -0.999577,0.18354 -0.221198,0.60939 -0.42623,1.26869 -1.185324,0.21765 -0.278061,0.55071 -0.546776,1.16218 -1.058461,0.19435 -0.249447,0.0148 -0.436584,-0.0452 -0.565867,-0.17456 -0.230208,-0.44873 -0.118457,-0.89744 -0.131178,-1.34617 -1.19133,0.23455 -1.885922,-0.67723 -2.457828,-1.87212 -2.827923,2.77971 -6.288589,4.51636 -10.568025,1.27206 -0.134241,0.47782 -0.35821,0.94442 -0.874414,1.37449 -0.291159,0.16578 -0.915193,0.65399 -0.803988,-0.60354 -0.921208,0.3673 -1.174037,-0.29522 -1.235374,-0.92738 -0.83942,0.22868 -0.934619,-0.2545 -1.009082,-0.75751 l 0.960341,-2.36876 c -1.006925,-1.51311 -0.728437,-3.24783 -0.367283,-4.99682 l -1.398707,-0.98073 c -2.655774,-1.4286 -4.076777,-0.41615 -5.811814,-2.78777 -1.4022932,-2.12631 -3.8300722,-2.94093 -6.6880722,-3.20527 -1.639423,-1.71087 -2.55227599,-3.20377 -3.5358579897042,-4.71788 z"
       sodipodi:nodetypes="ccccccccccccccccccsccccccccccccccccccccccccccccccc" /></g></svg>
